# xmcd
#
# Track frame offsets:
#	150
#	16333
#	31800
#	48508
#	62027
#	76224
#	89969
#	106804
#	121572
#	138748
#	152263
#	166285
#
# Disc length: 2463 seconds
#
# Revision: 1
# Processed by: cddbd v1.5.2PL0 Copyright (c) Steve Scherf et al.
# Submitted via: audiograbber 1.83.01
#
DISCID=8e099d0c
DTITLE=Brant Miller - The New American Dream Brant Miller
DYEAR=1998
DGENRE=Country
TTITLE0=The New American Dream
TTITLE1=Getting Over It
TTITLE2=On The Banks Of A River
TTITLE3=Replaced
TTITLE4=Stand By On My Own
TTITLE5=Rebellion Road
TTITLE6=Afternoon In The Shade
TTITLE7=The Real Thing
TTITLE8=Waiting For You
TTITLE9=Jessica
TTITLE10=Excus´m Moi
TTITLE11=Love Withyou
EXTD=
EXTT0=
EXTT1=
EXTT2=
EXTT3=
EXTT4=
EXTT5=
EXTT6=
EXTT7=
EXTT8=
EXTT9=
EXTT10=
EXTT11=
PLAYORDER=
